<svg aria-hidden="true" style="position: absolute; width: 0; height: 0; overflow: hidden;" version="1.1" xmlns="http://www.w3.org/2000/svg" xmlns:xlink="http://www.w3.org/1999/xlink">
<defs>


<!-- Social Links Icon -->

<symbol id="youtube" viewBox="0 0 16 16">
    <path d="M19.6 3.1c-1.1-.4-5.3-.4-5.3-.4s-4.2 0-5.3.4C7.2 3.5 6.5 4.2 6.2 5.2c-.4 1.1-.4 3.4-.4 3.4s0 2.3.4 3.4c.3 1 .9 1.7 1.8 2.1 1.1.4 5.3.4 5.3.4s4.2 0 5.3-.4c1-.3 1.7-.9 2.1-1.8.4-1.1.4-3.4.4-3.4s0-2.3-.4-3.4c-.4-1.1-1.1-1.8-2.1-2.1zM10 8.8v6.4l5.4-3.2-5.4-3.2z" />
</symbol>
</defs>
</svg>